<svg width="55" height="35" viewBox="0 0 55 35" fill="none" xmlns="http://www.w3.org/2000/svg">
<g clip-path="url(#clip0_3_75)">
<path d="M54.1771 21.7334C50.5039 31.1085 35.5808 36.814 20.8451 34.4761C6.11561 32.1389 -2.85117 22.6428 0.823677 13.2685C4.4953 3.89239 19.4184 -1.81353 34.1495 0.523721C48.8841 2.86097 57.8504 12.358 54.1767 21.7336L54.177 21.7334H54.1771Z" fill="#F7931A"/>
<path d="M39.6276 15.0067C40.175 12.6778 37.3885 11.426 33.5782 10.5908L34.8143 7.43619L31.7963 6.95768L30.593 10.0293C29.7995 9.90337 28.9847 9.78473 28.1749 9.66711L29.387 6.57524L26.3708 6.09674L25.134 9.25037C24.4775 9.15525 23.8326 9.06124 23.207 8.96219L23.2105 8.95227L19.0486 8.29097L18.2457 10.342C18.2457 10.342 20.4848 10.6686 20.4376 10.6887C21.6598 10.8828 21.8808 11.3976 21.8441 11.8056L20.436 15.3995C20.5202 15.4131 20.6293 15.4327 20.7498 15.4635C20.6491 15.4476 20.542 15.4303 20.4308 15.4133L18.4572 20.4479C18.3078 20.6841 17.9287 21.0387 17.0743 20.904C17.1045 20.9319 14.8807 20.5557 14.8807 20.5557L13.3824 22.7539L17.3098 23.3769C18.0404 23.4935 18.7564 23.6154 19.4615 23.7301L18.2127 26.921L21.2272 27.3995L22.4639 24.2425C23.2875 24.3848 24.0867 24.516 24.8691 24.6397L23.6365 27.7818L26.6546 28.2603L27.9034 25.0754C33.0497 25.6951 36.9193 25.4453 38.5481 22.4834C39.8606 20.0988 38.4828 18.7233 35.7753 17.8264C37.7473 17.537 39.2327 16.7117 39.6287 15.0069L39.6278 15.0065L39.6276 15.0067ZM32.7322 21.1591C31.7995 23.5437 25.4895 22.2547 23.4437 21.9314L25.101 17.7041C27.1466 18.0291 33.7069 18.6722 32.7323 21.1591H32.7322ZM33.6655 14.9721C32.8147 17.1412 27.5628 16.0392 25.8592 15.769L27.3617 11.9351C29.0654 12.2053 34.5519 12.7096 33.6658 14.9721H33.6655Z" fill="white"/>
</g>
<defs>
<clipPath id="clip0_3_75">
<rect width="55" height="35" fill="white"/>
</clipPath>
</defs>
</svg>
