<svg width="383" height="120" viewBox="0 0 383 120" fill="none" xmlns="http://www.w3.org/2000/svg">
<path d="M164.15 98V63H172.8L185.55 83.75L178.8 83.7L191.7 63H200.05V98H190.5V88.65C190.5 85.65 190.567 82.95 190.7 80.55C190.867 78.15 191.133 75.7667 191.5 73.4L192.6 76.35L183.65 90.2H180.35L171.6 76.35L172.7 73.4C173.067 75.6333 173.317 77.9333 173.45 80.3C173.617 82.6333 173.7 85.4167 173.7 88.65V98H164.15ZM217.239 98V80.55L217.589 83L203.439 63H214.539L225.339 78.5L219.489 78.35L229.239 63H240.039L226.489 83.55L227.239 80.15V98H217.239ZM249.247 98L239.097 63H249.047L253.597 79.8C253.83 80.7667 254.03 81.7167 254.197 82.65C254.397 83.55 254.547 84.4 254.647 85.2C254.747 85.9667 254.83 86.6833 254.897 87.35C254.964 88.0167 255.014 88.5667 255.047 89H254.097C254.197 88 254.28 87.0333 254.347 86.1C254.447 85.1333 254.597 84.15 254.797 83.15C254.997 82.1167 255.297 81 255.697 79.8L260.397 66.9H268.047L272.697 79.8C273.164 81.0667 273.514 82.2333 273.747 83.3C274.014 84.3333 274.214 85.3167 274.347 86.25C274.48 87.1833 274.58 88.0833 274.647 88.95L273.797 89C273.83 88.5 273.847 88 273.847 87.5C273.847 87 273.864 86.4833 273.897 85.95C273.93 85.3833 273.98 84.7833 274.047 84.15C274.114 83.5167 274.214 82.85 274.347 82.15C274.48 81.4167 274.647 80.6333 274.847 79.8L279.397 63H289.047L278.847 98H271.147L263.247 78.65H264.447L257.347 98H249.247ZM286.255 98L300.205 63H308.205L322.055 98H312.205L306.205 81.75C305.872 80.85 305.572 80.0167 305.305 79.25C305.039 78.4833 304.789 77.7333 304.555 77C304.322 76.2667 304.089 75.5167 303.855 74.75C303.655 73.9833 303.472 73.15 303.305 72.25L304.905 72.2C304.705 73.1667 304.489 74.0333 304.255 74.8C304.055 75.5667 303.839 76.3 303.605 77C303.372 77.7 303.105 78.4333 302.805 79.2C302.539 79.9667 302.239 80.8167 301.905 81.75L295.905 98H286.255ZM293.055 92.2L296.005 85.2H312.205L314.955 92.2H293.055ZM325.625 98V63H335.525V89.45H350.775V98H325.625ZM356.289 98V63H366.189V89.45H381.439V98H356.289Z" fill="black"/>
<g filter="url(#filter0_d_38_12)">
<path d="M93.4595 27.5823L133.765 97.6456H53.1542L93.4595 27.5823Z" fill="#925CFF"/>
</g>
<path d="M8 50.7089C8 25.0052 28.8369 4 54.5405 4V4C80.2442 4 101.081 25.0052 101.081 50.7089V50.7089C101.081 76.4125 80.2442 97.4177 54.5405 97.4177V97.4177C28.8369 97.4177 8 76.4125 8 50.7089V50.7089Z" fill="white"/>
<defs>
<filter id="filter0_d_38_12" x="49.1542" y="23.5823" width="92.6106" height="82.0632" filterUnits="userSpaceOnUse" color-interpolation-filters="sRGB">
<feFlood flood-opacity="0" result="BackgroundImageFix"/>
<feColorMatrix in="SourceAlpha" type="matrix" values="0 0 0 0 0 0 0 0 0 0 0 0 0 0 0 0 0 0 127 0" result="hardAlpha"/>
<feOffset dx="2" dy="2"/>
<feGaussianBlur stdDeviation="3"/>
<feComposite in2="hardAlpha" operator="out"/>
<feColorMatrix type="matrix" values="0 0 0 0 0 0 0 0 0 0 0 0 0 0 0 0 0 0 0.25 0"/>
<feBlend mode="normal" in2="BackgroundImageFix" result="effect1_dropShadow_38_12"/>
<feBlend mode="normal" in="SourceGraphic" in2="effect1_dropShadow_38_12" result="shape"/>
</filter>
</defs>
</svg>
